<?xml version="1.0" standalone="no"?>
<!DOCTYPE svg PUBLIC "-//W3C//DTD SVG 20010904//EN"
 "http://www.w3.org/TR/2001/REC-SVG-20010904/DTD/svg10.dtd">
<svg version="1.0" xmlns="http://www.w3.org/2000/svg"
 width="335.000000pt" height="240.000000pt" viewBox="0 0 335.000000 240.000000"
 preserveAspectRatio="xMidYMid meet">

<g transform="translate(0.000000,240.000000) scale(0.100000,-0.100000)"
fill="#ffffff" stroke="none">
<path d="M2477 2381 c-58 -38 -148 -134 -173 -184 -19 -38 -26 -71 -28 -122
-5 -137 31 -219 130 -299 56 -46 57 -47 117 -42 54 4 117 32 107 46 -2 3 2 16
9 28 7 13 15 58 17 100 3 65 7 80 27 97 24 22 45 61 26 50 -6 -4 -13 2 -16 13
-2 11 -16 25 -29 32 -13 8 -24 17 -24 22 0 24 -127 -18 -162 -53 -23 -23 -23
-31 3 -64 18 -22 27 -26 55 -21 27 6 34 3 39 -13 15 -50 -73 -149 -120 -135
-86 26 -122 171 -76 304 26 74 97 156 162 186 24 10 39 24 39 35 0 16 -8 21
-60 35 -8 2 -27 -4 -43 -15z m-62 -581 c16 -16 24 -30 19 -30 -6 0 -23 14 -39
30 -16 17 -24 30 -19 30 6 0 23 -13 39 -30z m211 -2 c-3 -19 -16 -38 -27 -38
-5 0 -2 11 7 25 18 28 23 31 20 13z"/>
<path d="M1983 2118 c3 -35 15 -137 26 -228 11 -91 21 -171 21 -177 0 -18 -29
-16 -36 2 -5 13 -116 125 -199 200 -40 36 -83 58 -102 51 -11 -5 -13 -16 -8
-53 7 -49 114 -455 134 -505 13 -36 47 -69 63 -63 14 6 17 88 3 118 -4 10 -5
20 -2 23 2 3 -2 30 -10 61 -8 30 -12 62 -9 69 3 8 1 14 -5 14 -6 0 -7 5 -3 11
5 8 9 8 14 -1 7 -11 27 -17 60 -19 8 -1 35 -26 60 -56 25 -30 53 -55 62 -55
10 0 25 -11 34 -25 13 -20 19 -22 34 -13 10 6 16 18 13 25 -5 12 31 18 87 15
13 0 13 1 0 11 -8 7 -30 59 -49 117 -19 58 -38 110 -43 117 -5 6 -9 40 -8 75
2 63 -12 197 -26 254 -12 48 -55 94 -88 94 l-28 0 5 -62z"/>
<path d="M1435 1810 c-8 -12 22 -190 41 -243 8 -21 11 -43 8 -48 -3 -5 0 -9 5
-9 6 0 11 -15 11 -34 0 -19 4 -37 9 -40 5 -3 9 -16 9 -28 0 -43 34 -141 58
-165 24 -24 57 -22 47 3 -3 9 1 14 12 14 16 0 17 6 10 58 -5 31 -9 75 -11 97
-1 31 -5 39 -18 37 -9 -2 -16 2 -16 8 0 5 5 10 10 10 13 0 13 66 -1 92 -6 11
-13 34 -15 52 -15 115 -22 140 -45 158 -13 10 -31 25 -40 33 -18 17 -65 20
-74 5z m172 -302 c-3 -7 -5 -2 -5 12 0 14 2 19 5 13 2 -7 2 -19 0 -25z"/>
<path d="M1082 1588 c-17 -35 -39 -100 -48 -145 -10 -46 -20 -83 -23 -83 -3 0
-23 26 -45 58 -44 67 -82 92 -137 92 l-39 0 0 -78 c0 -125 27 -301 71 -464 9
-35 33 -58 59 -58 13 0 7 129 -8 170 -12 33 -15 139 -4 122 7 -10 11 -5 15 17
4 17 11 31 17 31 6 0 30 -18 54 -40 37 -35 49 -40 73 -34 46 11 53 22 53 89 0
64 18 175 29 175 3 0 19 -44 36 -98 36 -118 77 -208 113 -244 28 -30 45 -36
40 -15 -2 7 5 29 16 48 l18 35 -35 105 c-19 57 -43 138 -52 179 -27 119 -46
154 -97 179 -24 11 -51 21 -60 21 -9 0 -28 -26 -46 -62z"/>
<path d="M2818 1608 c-8 -21 11 -164 31 -242 11 -41 23 -95 27 -121 9 -62 39
-96 78 -88 28 6 28 6 22 64 -4 32 -18 89 -31 126 -13 37 -31 106 -39 153 -11
64 -20 89 -36 102 -26 21 -46 23 -52 6z"/>
<path d="M503 1458 c-13 -6 -23 -14 -23 -19 0 -4 -18 -30 -40 -58 -22 -28 -40
-58 -40 -68 -1 -10 -9 -43 -20 -73 -27 -78 -27 -219 1 -303 22 -67 55 -111 77
-102 7 3 23 -2 35 -10 55 -39 182 -4 234 63 41 54 53 98 53 198 0 106 -28 198
-89 288 -43 64 -51 71 -96 83 -59 15 -63 15 -92 1z m107 -178 c43 -143 36
-256 -21 -346 -37 -57 -42 -52 -65 59 -8 39 -24 87 -35 105 -32 55 -19 163 26
212 9 10 14 24 10 30 -4 6 1 17 11 25 28 20 50 -5 74 -85z"/>
<path d="M2512 1402 c-10 -7 -9 -34 8 -138 11 -71 27 -154 35 -185 8 -31 15
-60 15 -63 0 -3 -31 18 -69 47 -164 123 -245 177 -267 177 -22 0 -24 -4 -24
-52 0 -147 58 -368 126 -486 20 -34 28 -41 39 -32 32 26 29 95 -10 304 -9 48
-14 90 -11 93 5 5 144 -98 216 -160 37 -32 50 -38 74 -33 36 8 38 9 43 43 7
44 6 50 -21 193 -31 158 -58 234 -98 273 -31 29 -36 31 -56 19z"/>
<path d="M151 1302 c-29 -6 -41 -17 -68 -62 -18 -30 -33 -62 -33 -71 0 -9 -7
-34 -16 -55 -11 -27 -18 -77 -20 -156 -3 -112 -1 -120 25 -172 45 -90 125
-136 234 -136 62 1 147 32 150 55 1 6 -37 12 -89 15 -148 8 -176 41 -182 210
-3 75 1 123 12 170 27 106 33 116 82 135 24 9 47 21 50 27 18 29 -71 54 -145
40z"/>
<path d="M1843 1110 c-13 -5 -23 -11 -23 -12 -1 -2 -7 -39 -15 -83 -36 -196
-9 -360 72 -443 24 -25 107 -54 154 -55 97 -2 169 95 169 229 0 39 -6 90 -14
115 -8 24 -19 70 -26 101 -21 104 -75 143 -211 152 -46 3 -94 2 -106 -4z m154
-79 c49 -36 69 -76 84 -172 17 -111 -1 -216 -46 -266 l-25 -28 -34 36 c-25 27
-38 53 -50 106 -18 80 -23 200 -12 291 9 73 21 78 83 33z"/>
<path d="M2966 929 c-31 -25 -33 -39 -6 -62 32 -27 67 -22 85 13 21 40 19 57
-7 64 -36 9 -43 7 -72 -15z"/>
<path d="M1350 921 c-5 -11 -10 -35 -10 -53 0 -19 -5 -39 -11 -45 -36 -36 -52
-259 -26 -361 29 -111 114 -182 220 -182 46 0 115 26 143 54 54 54 79 218 54
361 -7 41 -16 75 -20 75 -4 0 -10 18 -14 41 -13 83 -101 129 -247 129 -67 0
-80 -3 -89 -19z m218 -99 c25 -33 25 -33 18 -185 -8 -169 -23 -255 -48 -270
-38 -25 -80 53 -98 181 -12 89 -11 96 22 238 l21 91 30 -11 c16 -6 41 -26 55
-44z"/>
<path d="M946 729 c-60 -32 -183 -164 -201 -217 -20 -60 -19 -109 3 -151 14
-28 27 -37 66 -49 54 -15 94 -13 169 9 46 13 50 12 63 -6 8 -10 14 -38 14 -61
0 -33 -10 -56 -50 -115 -47 -70 -63 -119 -39 -119 18 0 142 71 172 99 44 40
57 74 57 145 0 81 -23 114 -90 126 -47 9 -157 -2 -206 -20 -39 -15 -54 -6 -54
32 0 87 109 228 223 288 73 39 60 60 -36 60 -32 -1 -67 -9 -91 -21z"/>
</g>
</svg>