<svg version="1.2" xmlns="http://www.w3.org/2000/svg" viewBox="0 0 1776 1500" width="32" height="34">
	<title>cdnlogo</title>
	<style>
		.s0 { fill: #ffffff } 
	</style>
	<path id="Layer" fill-rule="evenodd" class="s0" d="m890.8 550.3c119.2 59.5 188.1 184.6 188.1 342.2 0 158-67.7 279.4-187.4 336.2-32.4 15.3-64.8 23.7-114 29.5-24.2 2.8-47.5 1-72.4 0-49.2-5.8-81.6-14.2-114-29.5-119.6-56.8-187.4-178.2-187.4-336.2 0-157.6 68.9-282.7 188.2-342.1 46.7-23.3 94.2-34.1 149.4-34.9 55.2 0.8 102.8 11.6 149.5 34.8zm-197 76.4c-71.6 19-123.5 83.6-143.4 177.9-14 66.2-10.2 142.7 9.8 202.9 31.2 93.8 98.9 146.8 181.1 145.9 82.3 0.9 149.9-52.1 181.1-145.9 20-60.2 23.9-136.7 9.9-202.9-19.9-94.3-71.9-158.9-143.5-177.9-30.1-5.7-62.5-6.9-95 0zm-400.6-105.7c8.7 3.6 16.6 8.9 23.2 15.5 6.7 6.6 11.9 14.5 15.5 23.2 3.6 8.7 5.5 18 5.5 27.4 0 29-17.5 55.1-44.2 66.2-26.8 11-57.6 4.9-78-15.6-20.5-20.4-26.6-51.2-15.6-78 11.1-26.7 37.2-44.2 66.2-44.2 9.4 0 18.7 1.9 27.4 5.5zm39.5 213v525.7h-133.8v-525.7zm940.8 524.6c-57.4-9.8-112.5-17.4-159.3-44-0.6-0.5 27.6-106.1 28.9-108 75.2 25.6 181.1 61.4 252.5 28.6 38.9-19.5 58.1-55.5 51.6-97-7.2-46.7-39.5-73.6-128.3-106.8-99-37-157-82.5-180.7-141.6-11.7-29.1-15.6-66.1-10.3-98.5 14.6-89.9 84.6-152.5 192.2-171.6 31.1-5.6 97.8-5.6 130.5-0.1 47.3 7.9 101.5 25.7 101.5 33.4 0 2.8-27.7 100.4-29.1 102.6-46.7-18.5-99.1-31.7-143.5-32-62.7-0.8-130.7 36.4-118.7 102.2 8.5 41.2 34.8 61.3 131.6 100.7 71.3 29 105.5 49 134.8 78.7 40.8 40.7 53.7 88.5 54 135.8 0.1 39.4-3.6 57.8-17.7 88.2q-51.2 110.9-208.4 128.5c-19.6 2.2-65.8 2.7-81.6 0.9z"/>
</svg>