<svg version="1.2" xmlns="http://www.w3.org/2000/svg" viewBox="0 0 132 180" width="20" height="34">
	<title>Apple_Store_logo-svg</title>
	<style>
		.s0 { fill: #ffffff } 
	</style>
	<path id="Layer" class="s0" d="m69.3 39c3.3 0 14-2.1 22.3-14.2 7.1-10.5 6.3-22.2 6.3-22.2 0 0-12.3-0.9-23.1 12.5-7.8 9.8-7.2 23.8-7.2 23.8 0 0 0.6 0.1 1.7 0.1z"/>
	<path id="Layer" class="s0" d="m131 114.9c0.6-1.7 1-2.7 1-2.7h-0.1c0 0-0.1 0-0.2-0.1-0.6-0.2-2-0.8-3.8-1.9-3.6-2.1-8.6-6-12.2-12.3-2.3-4-3.9-9-4.3-15.2-0.2-3.1 0.1-6.1 0.7-8.8v-0.1c0.2-0.9 0.4-1.7 0.7-2.6 3.2-10.4 10.7-17.2 13.7-19.5l1.2-0.9c0 0-9.6-14.9-27.7-14.9-15.6 0-21.4 7-29.7 7-10.2 0-11.8-6.5-26.9-6.5-7.8 0-18.7 3-26.8 13.5-6.4 8.2-8.8 17.9-9.8 25-0.6 4.8-0.8 10-0.2 15.8 0 0.4 0.1 0.8 0.1 1.3 0.6 5.8 2.1 12 4.2 18.2 0 0.1 0.1 0.3 0.2 0.4 0.2 0.7 0.5 1.5 0.8 2.2 0.1 0.3 0.3 0.7 0.4 1 0.1 0.3 0.2 0.7 0.4 1 2 5.2 4.3 10.2 7 14.9 7.8 13.8 17.9 24.2 27.4 24.2 10.8 0 14.2-7 25-6.9 13.7 0.1 17.5 8.8 29 6.5 7.7-1.5 16.9-12.4 22.8-22.8 0.2-0.4 0.4-0.7 0.6-1 2.8-6 5.2-11.6 6.5-14.8z"/>
</svg>